<?xml version="1.0" encoding="UTF-8"?>
<svg id="Layer_1" data-name="Layer 1" xmlns="http://www.w3.org/2000/svg" viewBox="0 0 522.82 387.15">
  <defs>
    <style>
      .cls-1 {
        fill: #8628e1;
      }

      .cls-1, .cls-2 {
        stroke-width: 0px;
      }

      .cls-2 {
        fill: #fdf8f5;
      }
    </style>
  </defs>
  <path class="cls-2" d="M104.32,387.02c-20.66,0-41.32-.11-61.97.09-3.94.04-5.36-.59-5.25-5,.35-13.48.04-26.99.18-40.48.03-3.05-.37-4.23-3.97-4.18C12.85,337.78-.03,324.9,0,304.47c.04-28.15.04-56.31.25-84.46.12-15.83,3.17-30.98,11.92-44.53,12.16-18.83,30-29.33,51.48-33.6,30.39-6.05,60.71-5.74,90.64,3.21.16.05.33.06.49.12,13.08,4.55,13.16,4.55,13.28,18.18.39,41.52,12.45,79.31,36.29,113.27,2.82,4.01,4.19,7.98,3.87,12.89-.36,5.64-.27,11.33-.03,16.99.76,18.41-14.49,31.69-31.39,30.95-4.89-.22-5.24,1.48-5.17,5.46.22,12.99-.08,25.99.19,38.98.08,4.01-.72,5.27-5.03,5.22-20.82-.26-41.65-.12-62.47-.12Z"/>
  <path class="cls-1" d="M390.19,22.39c-3.16,2.28-6.27,2.07-9.11,2.68-43.94,9.38-82.1,28.78-110.98,64.15-14.19,17.39-23.44,37.33-27.67,59.23-2.29,11.85-2.51,24.16-1.18,36.27,4.06,36.97,20.29,65.97,55.52,81.6,46.25,20.51,107.2-6.4,120.35-55.6,4.91-18.37-.04-35.41-13.38-45.44-12.69-9.54-31.19-10.04-42.91-1.04-5.48,4.2-9.05,9.66-10.28,16.57-1.43,8.06,2.59,13.5,10.84,14.76,3.38.52,6.67-.07,9.93-.58,3.9-.6,4.16,1.3,3.57,4.25-1.53,7.6-10.45,13.12-19.93,12.28-15.7-1.4-27.59-14.15-27.95-29.98-.57-24.9,16.44-45.06,41.73-49.47,39.22-6.84,75.91,19.5,81.15,58.97,3.91,29.44-5.28,55.42-24.89,77.18-25.93,28.78-59.18,41.36-97.64,41.07-55.43-.41-110.41-36.54-125.13-99.38-17.08-72.88,19.53-140.43,82.18-172.17,14.37-7.28,29.47-12.35,45.26-15.07,19.21-3.31,38.58-3.96,57.97-1.33.61.08,1.18.48,2.55,1.07Z"/>
  <path class="cls-1" d="M362.12,242.95c-24.16,10.41-46.22,7.11-66.3-8.09-17.86-13.51-26.82-32.55-28.83-54.48-4.15-45.36,17.58-76.96,55.32-98.72,51.98-29.97,122.66-19.39,164.14,23.95,18.32,19.15,30.15,41.89,34.29,68.08,8.3,52.58-8.56,97.34-44.46,135.35-31.64,33.49-70.78,53.28-116.37,59.56-29.54,4.07-58.63,1.37-86.6-9.81-1.23-.49-2.43-1.09-3.64-1.64-.45-.21-.9-.43-1.53-.73,2.04-2.48,4.25-1.59,5.83-1.15,7.83,2.14,15.72,1.34,23.65,1.18,32.99-.68,64.32-8.11,93.59-23.33,37.83-19.66,67.6-47.35,83.04-88.04,9.57-25.23,12.57-51.21,3.83-77.48-9.55-28.72-28.71-48.37-56.73-59.7-14.62-5.91-29.68-8.47-45.32-6.91-34.38,3.43-61.15,19.27-74.64,51.68-18.06,43.39,5.15,87.07,57.2,89.27.93.04,1.95-.48,3.53,1.01Z"/>
  <path class="cls-2" d="M103.5.02c32.23-.78,62.12,26.3,61.74,61.87-.36,33.96-27.81,61.51-61.67,61.06-34.5-.47-61.05-27.51-61.06-62.18C42.5,26.9,69.69-.73,103.5.02Z"/>
</svg>